<?xml version="1.0" standalone="no"?>
<!DOCTYPE svg PUBLIC "-//W3C//DTD SVG 20010904//EN"
 "http://www.w3.org/TR/2001/REC-SVG-20010904/DTD/svg10.dtd">
<svg version="1.0" xmlns="http://www.w3.org/2000/svg"
 width="739.000000pt" height="739.000000pt" viewBox="0 0 739.000000 739.000000"
 preserveAspectRatio="xMidYMid meet">
<metadata>
Created by potrace 1.11, written by Peter Selinger 2001-2013
</metadata>
<g transform="translate(0.000000,739.000000) scale(0.100000,-0.100000)"
fill="#000000" stroke="none">
<path d="M5246 5739 c-364 -33 -677 -170 -907 -399 -244 -243 -359 -534 -359
-909 0 -486 180 -854 554 -1131 192 -142 345 -223 731 -390 481 -207 638 -292
739 -400 121 -129 154 -338 79 -498 -59 -125 -217 -238 -390 -279 -119 -28
-387 -25 -506 5 -266 67 -493 240 -666 511 -18 28 -37 51 -41 51 -8 0 -718
-408 -778 -446 l-23 -15 32 -57 c179 -315 427 -556 739 -715 195 -100 375
-160 591 -196 572 -96 1138 -1 1518 254 88 59 235 196 296 275 105 137 185
314 227 500 20 93 23 131 23 320 0 166 -5 236 -18 305 -48 237 -145 440 -292
605 -213 238 -504 417 -1090 670 -413 179 -547 252 -639 350 -85 90 -123 206
-114 343 7 99 39 175 100 242 109 119 259 167 455 145 213 -23 370 -130 500
-338 29 -46 51 -71 59 -68 25 10 749 477 752 485 7 19 -163 254 -248 344 -256
271 -557 404 -982 437 -150 11 -200 11 -342 -1z"/>
<path d="M2157 3928 c-3 -1654 -4 -1768 -21 -1838 -50 -207 -156 -322 -334
-359 -80 -17 -268 -14 -333 5 -166 49 -282 158 -420 392 -28 48 -52 88 -54 90
-1 2 -183 -106 -403 -239 l-400 -243 35 -70 c142 -282 381 -522 661 -661 478
-239 1197 -226 1632 30 318 187 509 480 597 915 15 78 17 237 20 1913 l3 1827
-490 0 -489 0 -4 -1762z"/>
</g>
</svg>
